<svg xmlns="http://www.w3.org/2000/svg" width="1735" height="750" viewBox="0 0 1735 750"><g fill="#fff" stroke="#707070" stroke-width="1"><rect width="1735" height="750" rx="15" stroke="none"/><rect x="0.5" y="0.5" width="1734" height="749" rx="14.5" fill="none"/></g><g transform="translate(98 84)"><g transform="translate(906)" fill="#fff" stroke="#000" stroke-width="3"><rect width="316" height="235" rx="32" stroke="none"/><rect x="1.5" y="1.5" width="313" height="232" rx="30.5" fill="none"/></g><g transform="translate(93 11)" fill="#fff" stroke="#000" stroke-width="3"><rect width="316" height="235" rx="32" stroke="none"/><rect x="1.5" y="1.5" width="313" height="232" rx="30.5" fill="none"/></g><g transform="translate(442.054 96)"><path d="M-20.446,1.5H313" transform="translate(20.446 21.884)" fill="none" stroke="#000" stroke-width="4"/><g transform="matrix(-0.035, 0.999, -0.999, -0.035, 414.758, 2.792)" fill="#070606"><path d="M 38.36348342895508 79.5 L 0.6365154981613159 79.5 L 19.5 2.111345529556274 L 38.36348342895508 79.5 Z" stroke="none"/><path d="M 19.5 4.222679138183594 L 1.273029327392578 79 L 37.72697067260742 79 L 19.5 4.222679138183594 M 19.5 0 L 39 80 L 0 80 L 19.5 0 Z" stroke="none" fill="#707070"/></g></g><g transform="translate(856.812 194.768) rotate(180)"><path d="M-20.446,1.5H313" transform="translate(20.446 19.384)" fill="none" stroke="#000" stroke-width="4"/><g transform="matrix(-0.035, 0.999, -0.999, -0.035, 414.758, 2.792)" fill="#070606"><path d="M 38.36348342895508 79.5 L 0.6365154981613159 79.5 L 19.5 2.111345529556274 L 38.36348342895508 79.5 Z" stroke="none"/><path d="M 19.5 4.222679138183594 L 1.273029327392578 79 L 37.72697067260742 79 L 19.5 4.222679138183594 M 19.5 0 L 39 80 L 0 80 L 19.5 0 Z" stroke="none" fill="#707070"/></g></g><text transform="translate(594 98)" fill="#707070" font-size="62" font-family="SegoeUI, Segoe UI"><tspan x="0" y="0">API</tspan></text><text transform="translate(983 139)" fill="#515050" font-size="51" font-family="SegoeUI-Bold, Segoe UI" font-weight="700"><tspan x="0" y="0">Django</tspan></text><path d="M134.75,22V35.75c0,12.117-30.178,22-67.375,22S0,47.867,0,35.75V22C0,9.883,30.178,0,67.375,0S134.75,9.883,134.75,22Zm0,30.937V83.875c0,12.117-30.178,22-67.375,22S0,95.992,0,83.875V52.938c14.475,9.969,40.969,14.61,67.375,14.61S120.275,62.906,134.75,52.938Zm0,48.125V132c0,12.117-30.178,22-67.375,22S0,144.117,0,132V101.063c14.475,9.969,40.969,14.61,67.375,14.61S120.275,111.031,134.75,101.063Z" transform="translate(1381.55 173)"/><text transform="translate(141 502)" font-size="62" font-family="SegoeUI-Bold, Segoe UI" font-weight="700"><tspan x="0" y="0">Frontend </tspan></text><text transform="translate(969 502)" font-size="62" font-family="SegoeUI-Bold, Segoe UI" font-weight="700"><tspan x="0" y="0">Backend </tspan></text><path d="M1384.937,526.86s149.306-84.092,161.319,84.092" transform="translate(-152 -444)" fill="none" stroke="#707070" stroke-width="5"/><path d="M1394.628,499.326l-10.215,27.64,10.215,23.434" transform="translate(-152 -444)" fill="none" stroke="#707070" stroke-width="5"/><path d="M1515.4,594.865l30.044,15.623,27.039-15.623" transform="translate(-152 -444)" fill="none" stroke="#707070" stroke-width="5"/><text transform="translate(616 230)" fill="#707070" font-size="53" font-family="SegoeUI, Segoe UI"><tspan x="0" y="0">data</tspan></text><text transform="translate(1382 394)" fill="#333232" font-size="62" font-family="SegoeUI, Segoe UI"><tspan x="0" y="0">SQLite</tspan></text><text transform="translate(141 353)" fill="#333232" font-size="62" font-family="SegoeUI, Segoe UI"><tspan x="0" y="0">Browser</tspan></text><text transform="translate(167 109)" fill="#444141" font-size="33" font-family="SegoeUI-Bold, Segoe UI" font-weight="700"><tspan x="0" y="0">HTML</tspan><tspan x="0" y="44">CSS</tspan><tspan x="0" y="88">JavaScript</tspan></text><text transform="translate(234 569)" font-size="41" font-family="SegoeUI, Segoe UI"><tspan x="0" y="0">( GitHub pages )</tspan></text><text transform="translate(1027 577)" font-size="42" font-family="SegoeUI, Segoe UI"><tspan x="0" y="0">( Heroku )</tspan></text><text transform="translate(0 569)" font-size="33" font-family="SegoeUI, Segoe UI"><tspan x="0" y="0">Deployed on</tspan></text><text transform="translate(943 353)" fill="#373636" font-size="62" font-family="SegoeUI, Segoe UI"><tspan x="0" y="0">Gunicorn</tspan></text></g></svg>